<svg width="120" height="40" viewBox="0 0 120 40" fill="none" xmlns="http://www.w3.org/2000/svg">
<g clip-path="url(#clip0_110_696)">
<path d="M110.1 0H7.5C6.8 0 6.2 0.1 5.5 0.2C4.9 0.3 4.2 0.5 3.6 0.8C3 1.1 2.5 1.5 2 2C1.5 2.5 1.1 3 0.8 3.6C0.5 4.2 0.3 4.9 0.2 5.5C0.1 6.2 0 6.9 0 7.5V32.4C0 33.1 0.1 33.7 0.2 34.4C0.3 35.1 0.5 35.7 0.8 36.3C1.1 37 1.5 37.5 2 38C2.5 38.5 3 38.9 3.6 39.2C4.2 39.5 4.8 39.7 5.5 39.8C6.2 39.9 6.8 40 7.5 40H112.1C112.8 40 113.4 39.9 114.1 39.8C114.8 39.7 115.4 39.5 116 39.2C116.6 38.9 117.1 38.5 117.6 38C118.1 37.5 118.5 37 118.8 36.4C119.1 35.8 119.3 35.2 119.4 34.5C119.5 33.8 119.6 33.2 119.6 32.5V31.6V9.5V8.4V7.5C119.6 6.8 119.5 6.2 119.4 5.5C119.3 4.8 119.1 4.2 118.8 3.6C118.2 2.4 117.2 1.4 116 0.8C115.4 0.5 114.8 0.3 114.1 0.2C113.4 0.1 112.8 0 112.1 0L110.1 0Z" fill="#A6A6A6"/>
<path d="M8.3998 39.1004H7.4998C6.8998 39.1004 6.1998 39.0004 5.5998 38.9004C4.9998 38.8004 4.4998 38.6004 3.8998 38.4004C3.3998 38.1004 2.8998 37.8004 2.4998 37.4004C2.0998 37.0004 1.6998 36.5004 1.4998 36.0004C1.1998 35.5004 1.0998 34.9004 0.999805 34.3004C0.899805 33.7004 0.799805 33.1004 0.799805 32.4004V8.40039V7.50039C0.799805 6.90039 0.899805 6.20039 0.999805 5.60039C1.0998 5.10039 1.2998 4.50039 1.5998 4.00039C1.8998 3.50039 2.1998 3.00039 2.5998 2.60039C2.9998 2.20039 3.4998 1.90039 3.9998 1.60039C4.4998 1.30039 5.0998 1.20039 5.6998 1.10039C6.2998 1.00039 6.8998 0.900391 7.5998 0.900391H112.2C112.8 0.900391 113.4 1.00039 114.1 1.10039C114.7 1.20039 115.2 1.40039 115.8 1.60039C116.8 2.10039 117.7 3.00039 118.2 4.00039C118.5 4.50039 118.6 5.10039 118.7 5.60039C118.8 6.20039 118.9 6.90039 118.9 7.50039V32.4004C118.9 33.0004 118.8 33.6004 118.7 34.3004C118.6 34.9004 118.4 35.4004 118.2 36.0004C117.9 36.5004 117.6 37.0004 117.2 37.4004C116.8 37.8004 116.3 38.2004 115.8 38.4004C115.3 38.7004 114.7 38.9004 114.1 38.9004C113.5 39.0004 112.9 39.1004 112.2 39.1004H8.3998Z" fill="#212121"/>
<path d="M24.7998 20.3C24.7998 18.6 25.6998 17 27.1998 16.1C26.2998 14.8 24.7998 14 23.1998 13.9C21.4998 13.7 19.8998 14.9 18.9998 14.9C18.0998 14.9 16.7998 13.9 15.3998 13.9C13.4998 14 11.7998 15 10.8998 16.6C8.99984 19.9 10.3998 24.9 12.2998 27.6C13.1998 28.9 14.2998 30.4 15.6998 30.4C17.0998 30.3 17.5998 29.5 19.2998 29.5C20.9998 29.5 21.3998 30.4 22.8998 30.4C24.3998 30.4 25.2998 29.1 26.1998 27.7C26.8998 26.8 27.3998 25.7 27.6998 24.6C25.8998 24 24.7998 22.2 24.7998 20.3ZM21.9998 12.2C22.7998 11.2 23.1998 9.99995 23.0998 8.69995C21.8998 8.79995 20.6998 9.39995 19.8998 10.4C19.0998 11.3 18.6998 12.5 18.7998 13.8C20.0998 13.8 21.1998 13.2 21.9998 12.2ZM42.2998 27.1H37.5998L36.4998 30.5H34.4998L38.9998 18.1H40.9998L45.4998 30.5H43.4998L42.2998 27.1ZM38.0998 25.6H41.8998L39.9998 20.1H39.8998L38.0998 25.6ZM55.1998 26C55.1998 28.7999 53.6998 30.6 51.3998 30.6C50.1998 30.7 49.0998 30 48.5998 29V33.5H46.6998V21.5H48.4998V23C49.0998 22 50.1998 21.4 51.3998 21.4C53.5998 21.3 55.1998 23.2 55.1998 26ZM53.1998 26C53.1998 24.2 52.2998 23 50.7998 23C49.3998 23 48.3998 24.2 48.3998 26C48.3998 27.7999 49.3998 29 50.7998 29C52.2998 29 53.1998 27.7999 53.1998 26ZM65.0998 26C65.0998 28.7999 63.5998 30.6 61.2998 30.6C60.0998 30.7 58.9998 30 58.4998 29V33.5H56.5998V21.5H58.3998V23C58.9998 22 60.0998 21.4 61.2998 21.4C63.5998 21.3 65.0998 23.2 65.0998 26ZM63.1998 26C63.1998 24.2 62.2998 23 60.7998 23C59.3998 23 58.3998 24.2 58.3998 26C58.3998 27.7999 59.3998 29 60.7998 29C62.2998 29 63.1998 27.7999 63.1998 26ZM71.6998 27C71.7998 28.2 72.9998 29 74.6998 29C76.2998 29 77.3998 28.2 77.3998 27.1C77.3998 26.1 76.6998 25.6 75.0998 25.2L73.4998 24.7999C71.1998 24.2999 70.1998 23.2 70.1998 21.5C70.1998 19.4 72.0998 17.9 74.6998 17.9C77.2998 17.9 79.0998 19.4 79.1998 21.5H77.2998C77.1998 20.3 76.1998 19.5 74.6998 19.5C73.1998 19.5 72.1998 20.3 72.1998 21.4C72.1998 22.3 72.8998 22.8 74.4998 23.2L75.8998 23.5C78.3998 24.1 79.4998 25.1 79.4998 26.9C79.4998 29.2 77.6998 30.7 74.6998 30.7C71.8998 30.7 70.0998 29.2999 69.9998 27H71.6998ZM83.2998 19.3V21.4H84.9998V22.9H83.2998V27.9C83.2998 28.7 83.5998 29 84.3998 29H84.9998V30.5C84.6998 30.6 84.2998 30.6 83.9998 30.6C82.1998 30.6 81.4998 29.9 81.4998 28.2V23H80.1998V21.5H81.4998V19.4H83.2998V19.3ZM86.0998 26C86.0998 23.2 87.7998 21.4 90.3998 21.4C92.9998 21.4 94.6998 23.2 94.6998 26C94.6998 28.9 92.9998 30.6 90.3998 30.6C87.6998 30.6 86.0998 28.7999 86.0998 26ZM92.7998 26C92.7998 24 91.8998 22.9 90.3998 22.9C88.8998 22.9 87.9998 24 87.9998 26C87.9998 28 88.8998 29.1 90.3998 29.1C91.8998 29.1 92.7998 27.9 92.7998 26ZM96.1998 21.4H97.9998V23C98.1998 22 99.1998 21.3 100.2 21.4C100.4 21.4 100.6 21.4 100.8 21.5V23.2C100.5 23.1 100.2 23.1 99.9998 23.1C98.9998 23.1 98.0998 23.9 98.0998 24.9V30.6H96.1998V21.4ZM109.4 27.7999C109.2 29.4 107.6 30.6 105.5 30.6C102.9 30.6 101.2 28.7999 101.2 26C101.2 23.2 102.8 21.3 105.4 21.3C107.9 21.3 109.5 22.9999 109.5 25.7999V26.4H103.1V26.5C103 27.7999 103.9 28.9 105.2 29.1H105.5C106.4 29.2 107.3 28.6999 107.6 27.7999H109.4ZM103.1 25.1H107.6C107.7 23.9 106.7 22.9 105.5 22.8H105.3C104.1 22.8 103.1 23.8 103.1 25.1Z" fill="white"/>
<path d="M37.8001 8.70039C39.3001 8.60039 40.5001 9.70039 40.6001 11.1004V11.6004C40.6001 13.5004 39.6001 14.6004 37.8001 14.6004H35.6001V8.60039L37.8001 8.70039ZM36.6001 13.9004H37.7001C38.7001 14.0004 39.6001 13.2004 39.7001 12.1004V11.7004C39.8001 10.7004 39.1001 9.70039 38.1001 9.60039H36.6001V13.9004ZM41.7001 12.4004C41.6001 11.2004 42.5001 10.2004 43.6001 10.1004C44.8001 10.0004 45.8001 10.9004 45.9001 12.0004V12.4004C46.0001 13.6004 45.2001 14.6004 44.0001 14.7004C42.8001 14.8004 41.8001 14.0004 41.7001 12.8004V12.4004ZM45.0001 12.4004C45.0001 11.4004 44.6001 10.9004 43.8001 10.9004C43.0001 10.9004 42.6001 11.5004 42.6001 12.4004C42.6001 13.4004 43.0001 14.0004 43.8001 14.0004C44.6001 14.0004 45.0001 13.4004 45.0001 12.4004ZM51.6001 14.7004H50.7001L49.8001 11.4004H49.7001L48.8001 14.7004H47.9001L46.7001 10.2004H47.6001L48.4001 13.6004H48.5001L49.4001 10.2004H50.3001L51.2001 13.6004H51.3001L52.1001 10.2004H53.0001L51.6001 14.7004ZM53.9001 10.2004H54.8001V10.9004H54.9001C55.1001 10.4004 55.7001 10.1004 56.2001 10.1004C57.0001 10.0004 57.7001 10.6004 57.8001 11.5004V14.7004H56.9001V12.0004C56.9001 11.3004 56.6001 10.9004 55.9001 10.9004C55.3001 10.9004 54.8001 11.3004 54.8001 11.9004V14.7004H53.9001V10.2004ZM59.1001 8.40039H60.0001V14.7004H59.1001V8.40039ZM61.2001 12.4004C61.1001 11.2004 61.9001 10.2004 63.1001 10.1004C64.3001 10.0004 65.3001 10.8004 65.4001 12.0004V12.4004C65.5001 13.6004 64.7001 14.6004 63.5001 14.7004C62.3001 14.8004 61.3001 14.0004 61.2001 12.8004V12.4004ZM64.6001 12.4004C64.6001 11.4004 64.2001 10.9004 63.4001 10.9004C62.6001 10.9004 62.2001 11.5004 62.2001 12.4004C62.2001 13.4004 62.6001 14.0004 63.4001 14.0004C64.1001 14.0004 64.6001 13.4004 64.6001 12.4004ZM66.4001 13.4004C66.4001 12.6004 67.0001 12.1004 68.1001 12.1004L69.3001 12.0004V11.6004C69.3001 11.1004 69.0001 10.9004 68.4001 10.9004C67.9001 10.9004 67.6001 11.1004 67.5001 11.4004H66.6001C66.7001 10.6004 67.4001 10.1004 68.4001 10.1004C69.5001 10.1004 70.2001 10.7004 70.2001 11.6004V14.7004H69.3001V14.1004H69.2001C68.9001 14.6004 68.4001 14.8004 67.8001 14.8004C67.1001 14.9004 66.4001 14.3004 66.3001 13.6004C66.4001 13.5004 66.4001 13.5004 66.4001 13.4004ZM69.3001 13.0004V12.6004L68.2001 12.7004C67.6001 12.7004 67.3001 13.0004 67.3001 13.3004C67.3001 13.7004 67.7001 13.9004 68.1001 13.9004C68.7001 14.1004 69.2001 13.7004 69.3001 13.0004C69.3001 13.1004 69.3001 13.1004 69.3001 13.0004ZM71.3001 12.4004C71.3001 11.0004 72.0001 10.1004 73.2001 10.1004C73.8001 10.1004 74.3001 10.4004 74.6001 10.9004H74.7001V8.40039H75.6001V14.7004H74.7001V14.0004H74.6001C74.3001 14.5004 73.8001 14.8004 73.2001 14.8004C72.1001 14.8004 71.3001 13.9004 71.3001 12.4004ZM72.3001 12.4004C72.3001 13.4004 72.7001 13.9004 73.5001 13.9004C74.3001 13.9004 74.7001 13.3004 74.7001 12.4004C74.7001 11.5004 74.2001 10.9004 73.5001 10.9004C72.7001 10.9004 72.3001 11.5004 72.3001 12.4004ZM79.2001 12.4004C79.1001 11.2004 79.9001 10.2004 81.1001 10.1004C82.3001 10.0004 83.3001 10.8004 83.4001 12.0004V12.4004C83.5001 13.6004 82.7001 14.6004 81.5001 14.7004C80.3001 14.8004 79.3001 14.0004 79.2001 12.8004V12.4004ZM82.6001 12.4004C82.6001 11.4004 82.2001 10.9004 81.4001 10.9004C80.6001 10.9004 80.2001 11.5004 80.2001 12.4004C80.2001 13.4004 80.6001 14.0004 81.4001 14.0004C82.1001 14.0004 82.6001 13.4004 82.6001 12.4004ZM84.7001 10.2004H85.6001V10.9004H85.7001C85.9001 10.4004 86.5001 10.1004 87.0001 10.1004C87.8001 10.0004 88.5001 10.6004 88.6001 11.5004V14.7004H87.7001V12.0004C87.7001 11.3004 87.4001 10.9004 86.7001 10.9004C86.1001 10.9004 85.6001 11.3004 85.6001 11.9004V14.7004H84.7001V10.2004ZM93.5001 9.10039V10.2004H94.5001V11.0004H93.5001V13.3004C93.5001 13.8004 93.7001 14.0004 94.1001 14.0004H94.4001V14.7004H93.9001C92.9001 14.7004 92.5001 14.4004 92.5001 13.5004V11.0004H91.8001V10.3004H92.5001V9.10039H93.5001ZM95.7001 8.40039H96.6001V10.9004H96.7001C96.9001 10.4004 97.5001 10.0004 98.1001 10.1004C98.9001 10.1004 99.6001 10.7004 99.7001 11.5004V14.7004H98.8001V12.0004C98.8001 11.3004 98.5001 10.9004 97.8001 10.9004C97.2001 10.9004 96.7001 11.3004 96.7001 11.9004V14.7004H95.8001V8.40039H95.7001ZM104.8 13.5004C104.6 14.3004 103.7 14.9004 102.9 14.8004C101.8 14.8004 100.8 13.9004 100.8 12.8004V12.5004C100.6 11.4004 101.4 10.3004 102.6 10.2004H102.9C104.2 10.2004 104.9 11.1004 104.9 12.5004V12.8004H101.7V12.9004C101.6 13.6004 102.1 14.1004 102.8 14.2004H102.9C103.3 14.3004 103.8 14.0004 104 13.7004H104.8V13.5004ZM101.6 12.0004H103.9C103.9 11.4004 103.5 10.9004 102.9 10.8004H102.8C102.2 10.9004 101.6 11.4004 101.6 12.0004Z" fill="white"/>
</g>
<defs>
<clipPath id="clip0_110_696">
<rect width="119.7" height="40" fill="white"/>
</clipPath>
</defs>
</svg>
