<svg width="615" height="71" viewBox="0 0 615 71" fill="none" xmlns="http://www.w3.org/2000/svg">
<mask id="path-1-outside-1_119_1221" maskUnits="userSpaceOnUse" x="-5" y="-4.66895" width="625" height="81" fill="black">
<rect fill="white" x="-5" y="-4.66895" width="625" height="81"/>
<path d="M32.7804 18.8189C32.0014 17.5359 30.9245 16.5507 29.5498 15.8633C28.2209 15.1759 26.64 14.8323 24.807 14.8323C21.4161 14.8323 18.7354 15.932 16.7649 18.1316C14.8403 20.3311 13.878 23.2868 13.878 26.9985C13.878 31.1685 14.909 34.3533 16.9711 36.5528C19.079 38.7065 22.1263 39.7834 26.113 39.7834C30.8329 39.7834 34.2009 37.6526 36.2172 33.391H22.6762V23.6992H47.8336V36.759C46.7796 39.3252 45.2216 41.7309 43.1595 43.9763C41.1433 46.2217 38.5771 48.0776 35.4611 49.5439C32.3451 50.9645 28.7937 51.6747 24.807 51.6747C19.9497 51.6747 15.6422 50.6437 11.8847 48.5816C8.17292 46.4737 5.28601 43.5639 3.22393 39.8521C1.20768 36.0946 0.199551 31.81 0.199551 26.9985C0.199551 22.2328 1.20768 17.9941 3.22393 14.2824C5.28601 10.5248 8.17292 7.61498 11.8847 5.5529C15.5964 3.445 19.881 2.39104 24.7383 2.39104C30.8329 2.39104 35.8735 3.85741 39.8602 6.79015C43.8469 9.72288 46.3214 13.7325 47.2837 18.8189H32.7804ZM73.5296 19.575C75.0417 17.3755 76.8747 15.6342 79.0284 14.3511C81.1822 13.068 83.4963 12.4265 85.9708 12.4265V26.7923H82.1903C79.2576 26.7923 77.0809 27.3651 75.6604 28.5107C74.2398 29.6563 73.5296 31.6497 73.5296 34.4907V51.3311H60.0573V12.7702H73.5296V19.575ZM133.829 31.6038C133.829 32.6578 133.761 33.7117 133.623 34.7657H108.122C108.259 36.8736 108.832 38.4545 109.84 39.5085C110.894 40.5166 112.223 41.0207 113.827 41.0207C116.072 41.0207 117.676 40.0125 118.639 37.9963H133.004C132.409 40.6541 131.24 43.0369 129.499 45.1448C127.803 47.2069 125.65 48.8336 123.038 50.0251C120.426 51.2165 117.539 51.8122 114.377 51.8122C110.574 51.8122 107.183 51.0103 104.204 49.4064C101.271 47.8026 98.9572 45.5114 97.2617 42.5329C95.6121 39.5543 94.7872 36.0488 94.7872 32.0162C94.7872 27.9837 95.6121 24.5011 97.2617 21.5684C98.9114 18.5898 101.203 16.2986 104.135 14.6948C107.114 13.0909 110.528 12.289 114.377 12.289C118.18 12.289 121.548 13.068 124.481 14.626C127.414 16.1841 129.705 18.4294 131.355 21.3622C133.004 24.2491 133.829 27.663 133.829 31.6038ZM120.082 28.2358C120.082 26.5861 119.532 25.303 118.432 24.3866C117.333 23.4242 115.958 22.9431 114.308 22.9431C112.659 22.9431 111.307 23.4013 110.253 24.3178C109.199 25.1885 108.512 26.4945 108.191 28.2358H120.082ZM143.329 32.0162C143.329 28.0296 144.04 24.5469 145.46 21.5684C146.927 18.5898 148.897 16.2986 151.371 14.6948C153.892 13.0909 156.687 12.289 159.757 12.289C162.415 12.289 164.706 12.816 166.631 13.87C168.555 14.9239 170.045 16.3444 171.099 18.1316V12.7702H184.571V51.3311H171.099V45.9696C170.045 47.7568 168.533 49.1773 166.562 50.2313C164.637 51.2852 162.369 51.8122 159.757 51.8122C156.687 51.8122 153.892 51.0103 151.371 49.4064C148.897 47.8026 146.927 45.5114 145.46 42.5329C144.04 39.5085 143.329 36.0029 143.329 32.0162ZM171.099 32.0162C171.099 29.5418 170.411 27.5942 169.037 26.1737C167.708 24.7531 166.058 24.0429 164.088 24.0429C162.071 24.0429 160.399 24.7531 159.07 26.1737C157.741 27.5484 157.077 29.4959 157.077 32.0162C157.077 34.4907 157.741 36.4612 159.07 37.9275C160.399 39.3481 162.071 40.0584 164.088 40.0584C166.058 40.0584 167.708 39.3481 169.037 37.9275C170.411 36.507 171.099 34.5366 171.099 32.0162ZM221.186 39.8521V51.3311H215.343C205.491 51.3311 200.565 46.4508 200.565 36.6903V23.9741H195.822V12.7702H200.565V3.42208H214.106V12.7702H221.117V23.9741H214.106V36.8965C214.106 37.9505 214.335 38.7065 214.793 39.1648C215.297 39.623 216.122 39.8521 217.268 39.8521H221.186ZM289.393 2.87219V13.595H276.47V51.3311H262.998V13.595H250.213V2.87219H289.393ZM318.503 51.8122C314.654 51.8122 311.195 51.0103 308.124 49.4064C305.1 47.8026 302.717 45.5114 300.976 42.5329C299.234 39.5543 298.364 36.0488 298.364 32.0162C298.364 28.0296 299.234 24.5469 300.976 21.5684C302.763 18.5898 305.169 16.2986 308.193 14.6948C311.263 13.0909 314.723 12.289 318.572 12.289C322.421 12.289 325.858 13.0909 328.883 14.6948C331.953 16.2986 334.359 18.5898 336.1 21.5684C337.887 24.5469 338.781 28.0296 338.781 32.0162C338.781 36.0029 337.887 39.5085 336.1 42.5329C334.359 45.5114 331.953 47.8026 328.883 49.4064C325.812 51.0103 322.353 51.8122 318.503 51.8122ZM318.503 40.1271C320.382 40.1271 321.94 39.4397 323.178 38.065C324.461 36.6445 325.102 34.6282 325.102 32.0162C325.102 29.4043 324.461 27.4109 323.178 26.0362C321.94 24.6615 320.405 23.9741 318.572 23.9741C316.739 23.9741 315.204 24.6615 313.967 26.0362C312.73 27.4109 312.111 29.4043 312.111 32.0162C312.111 34.674 312.707 36.6903 313.898 38.065C315.09 39.4397 316.625 40.1271 318.503 40.1271ZM364.676 12.289C367.288 12.289 369.557 12.816 371.481 13.87C373.452 14.9239 374.964 16.3444 376.018 18.1316V12.7702H389.49V50.9186C389.49 54.5387 388.803 57.7922 387.428 60.6791C386.053 63.6119 383.899 65.9489 380.967 67.6902C378.08 69.4315 374.414 70.3022 369.969 70.3022C364.012 70.3022 359.246 68.9046 355.672 66.1093C352.098 63.314 350.058 59.5106 349.554 54.6991H362.82C363.095 55.9364 363.783 56.8987 364.883 57.586C365.982 58.2734 367.403 58.6171 369.144 58.6171C373.727 58.6171 376.018 56.0509 376.018 50.9186V45.9696C374.964 47.7568 373.452 49.1773 371.481 50.2313C369.557 51.2852 367.288 51.8122 364.676 51.8122C361.606 51.8122 358.811 51.0103 356.291 49.4064C353.816 47.8026 351.846 45.5114 350.379 42.5329C348.959 39.5085 348.248 36.0029 348.248 32.0162C348.248 28.0296 348.959 24.5469 350.379 21.5684C351.846 18.5898 353.816 16.2986 356.291 14.6948C358.811 13.0909 361.606 12.289 364.676 12.289ZM376.018 32.0162C376.018 29.5418 375.33 27.5942 373.956 26.1737C372.627 24.7531 370.977 24.0429 369.007 24.0429C366.99 24.0429 365.318 24.7531 363.989 26.1737C362.66 27.5484 361.996 29.4959 361.996 32.0162C361.996 34.4907 362.66 36.4612 363.989 37.9275C365.318 39.3481 366.99 40.0584 369.007 40.0584C370.977 40.0584 372.627 39.3481 373.956 37.9275C375.33 36.507 376.018 34.5366 376.018 32.0162ZM440.196 31.6038C440.196 32.6578 440.127 33.7117 439.989 34.7657H414.488C414.626 36.8736 415.199 38.4545 416.207 39.5085C417.261 40.5166 418.59 41.0207 420.193 41.0207C422.439 41.0207 424.043 40.0125 425.005 37.9963H439.371C438.775 40.6541 437.607 43.0369 435.865 45.1448C434.17 47.2069 432.016 48.8336 429.404 50.0251C426.792 51.2165 423.905 51.8122 420.743 51.8122C416.94 51.8122 413.549 51.0103 410.57 49.4064C407.638 47.8026 405.324 45.5114 403.628 42.5329C401.978 39.5543 401.154 36.0488 401.154 32.0162C401.154 27.9837 401.978 24.5011 403.628 21.5684C405.278 18.5898 407.569 16.2986 410.502 14.6948C413.48 13.0909 416.894 12.289 420.743 12.289C424.547 12.289 427.915 13.068 430.848 14.626C433.78 16.1841 436.072 18.4294 437.721 21.3622C439.371 24.2491 440.196 27.663 440.196 31.6038ZM426.448 28.2358C426.448 26.5861 425.899 25.303 424.799 24.3866C423.699 23.4242 422.324 22.9431 420.675 22.9431C419.025 22.9431 417.673 23.4013 416.619 24.3178C415.565 25.1885 414.878 26.4945 414.557 28.2358H426.448ZM474.647 39.8521V51.3311H468.804C458.952 51.3311 454.026 46.4508 454.026 36.6903V23.9741H449.283V12.7702H454.026V3.42208H467.567V12.7702H474.578V23.9741H467.567V36.8965C467.567 37.9505 467.796 38.7065 468.254 39.1648C468.759 39.623 469.583 39.8521 470.729 39.8521H474.647ZM512.376 12.4265C516.775 12.4265 520.258 13.9158 522.824 16.8943C525.436 19.8271 526.742 23.8138 526.742 28.8544V51.3311H513.27V30.6415C513.27 28.442 512.697 26.7236 511.551 25.4863C510.406 24.2033 508.87 23.5617 506.946 23.5617C504.93 23.5617 503.349 24.2033 502.203 25.4863C501.057 26.7236 500.485 28.442 500.485 30.6415V51.3311H487.012V0.466437H500.485V18.2691C501.676 16.5277 503.28 15.1301 505.296 14.0762C507.358 12.9764 509.718 12.4265 512.376 12.4265ZM577.163 31.6038C577.163 32.6578 577.094 33.7117 576.957 34.7657H551.456C551.593 36.8736 552.166 38.4545 553.174 39.5085C554.228 40.5166 555.557 41.0207 557.161 41.0207C559.406 41.0207 561.01 40.0125 561.972 37.9963H576.338C575.742 40.6541 574.574 43.0369 572.832 45.1448C571.137 47.2069 568.983 48.8336 566.371 50.0251C563.759 51.2165 560.872 51.8122 557.711 51.8122C553.907 51.8122 550.516 51.0103 547.538 49.4064C544.605 47.8026 542.291 45.5114 540.595 42.5329C538.946 39.5543 538.121 36.0488 538.121 32.0162C538.121 27.9837 538.946 24.5011 540.595 21.5684C542.245 18.5898 544.536 16.2986 547.469 14.6948C550.447 13.0909 553.861 12.289 557.711 12.289C561.514 12.289 564.882 13.068 567.815 14.626C570.747 16.1841 573.039 18.4294 574.688 21.3622C576.338 24.2491 577.163 27.663 577.163 31.6038ZM563.416 28.2358C563.416 26.5861 562.866 25.303 561.766 24.3866C560.666 23.4242 559.291 22.9431 557.642 22.9431C555.992 22.9431 554.64 23.4013 553.586 24.3178C552.532 25.1885 551.845 26.4945 551.524 28.2358H563.416ZM602.335 19.575C603.847 17.3755 605.68 15.6342 607.834 14.3511C609.987 13.068 612.301 12.4265 614.776 12.4265V26.7923H610.995C608.063 26.7923 605.886 27.3651 604.466 28.5107C603.045 29.6563 602.335 31.6497 602.335 34.4907V51.3311H588.862V12.7702H602.335V19.575Z"/>
</mask>
<path d="M32.7804 18.8189L28.427 21.4621L29.9144 23.9119H32.7804V18.8189ZM29.5498 15.8633L27.21 20.387L27.241 20.403L27.2722 20.4186L29.5498 15.8633ZM16.7649 18.1316L12.9715 14.7333L12.9516 14.7554L12.932 14.7778L16.7649 18.1316ZM16.9711 36.5528L13.2556 40.0361L13.293 40.0761L13.3313 40.1152L16.9711 36.5528ZM36.2172 33.391L40.821 35.5691L44.2611 28.298H36.2172V33.391ZM22.6762 33.391H17.5832V38.484H22.6762V33.391ZM22.6762 23.6992V18.6062H17.5832V23.6992H22.6762ZM47.8336 23.6992H52.9266V18.6062H47.8336V23.6992ZM47.8336 36.759L52.5447 38.694L52.9266 37.7642V36.759H47.8336ZM43.1595 43.9763L39.4084 40.5314L39.3891 40.5523L39.3701 40.5735L43.1595 43.9763ZM35.4611 49.5439L37.5737 54.1781L37.6018 54.1653L37.6297 54.1522L35.4611 49.5439ZM11.8847 48.5816L9.36961 53.0103L9.40189 53.0286L9.43443 53.0465L11.8847 48.5816ZM3.22393 39.8521L-1.26382 42.2602L-1.24623 42.293L-1.22816 42.3255L3.22393 39.8521ZM3.22393 14.2824L-1.24094 11.8321L-1.24619 11.8417L-1.25141 11.8513L3.22393 14.2824ZM11.8847 5.5529L14.358 10.005L14.3789 9.99338L14.3997 9.98158L11.8847 5.5529ZM39.8602 6.79015L36.8423 10.8927V10.8927L39.8602 6.79015ZM47.2837 18.8189V23.9119H53.4306L52.2879 17.8722L47.2837 18.8189ZM37.1338 16.1758C35.8444 14.052 34.0387 12.4136 31.8275 11.308L27.2722 20.4186C27.8103 20.6877 28.1584 21.0197 28.427 21.4621L37.1338 16.1758ZM31.8897 11.3396C29.6925 10.2031 27.2735 9.73925 24.807 9.73925V19.9253C26.0064 19.9253 26.7493 20.1487 27.21 20.387L31.8897 11.3396ZM24.807 9.73925C20.2053 9.73925 16.0557 11.2904 12.9715 14.7333L20.5584 21.5299C21.415 20.5736 22.6268 19.9253 24.807 19.9253V9.73925ZM12.932 14.7778C9.99449 18.135 8.785 22.3962 8.785 26.9985H18.971C18.971 24.1773 19.6861 22.5273 20.5978 21.4854L12.932 14.7778ZM8.785 26.9985C8.785 31.962 10.0171 36.5818 13.2556 40.0361L20.6867 33.0695C19.801 32.1248 18.971 30.375 18.971 26.9985H8.785ZM13.3313 40.1152C16.6771 43.5337 21.2163 44.8764 26.113 44.8764V34.6904C23.0363 34.6904 21.481 33.8794 20.6109 32.9904L13.3313 40.1152ZM26.113 44.8764C29.2569 44.8764 32.2633 44.1586 34.9019 42.4893C37.5408 40.8198 39.4766 38.4106 40.821 35.5691L31.6135 31.2128C30.9416 32.633 30.1852 33.42 29.456 33.8813C28.7265 34.3428 27.689 34.6904 26.113 34.6904V44.8764ZM36.2172 28.298H22.6762V38.484H36.2172V28.298ZM27.7692 33.391V23.6992H17.5832V33.391H27.7692ZM22.6762 28.7922H47.8336V18.6062H22.6762V28.7922ZM42.7406 23.6992V36.759H52.9266V23.6992H42.7406ZM43.1224 34.8241C42.3184 36.7818 41.104 38.685 39.4084 40.5314L46.9107 47.4212C49.3392 44.7769 51.2409 41.8685 52.5447 38.694L43.1224 34.8241ZM39.3701 40.5735C37.8679 42.2464 35.8796 43.7182 33.2925 44.9357L37.6297 54.1522C41.2747 52.4369 44.4186 50.197 46.949 47.3791L39.3701 40.5735ZM33.3485 44.9098C30.9959 45.9822 28.1836 46.5817 24.807 46.5817V56.7677C29.4039 56.7677 33.6943 55.9467 37.5737 54.1781L33.3485 44.9098ZM24.807 46.5817C20.6905 46.5817 17.2462 45.7144 14.3349 44.1167L9.43443 53.0465C14.0383 55.573 19.2089 56.7677 24.807 56.7677V46.5817ZM14.3997 44.1529C11.4963 42.5041 9.28158 40.2688 7.67602 37.3788L-1.22816 42.3255C1.29045 46.859 4.84952 50.4433 9.36961 53.0103L14.3997 44.1529ZM7.71169 37.4441C6.14141 34.5176 5.29256 31.079 5.29256 26.9985H-4.89346C-4.89346 32.5411 -3.72605 37.6715 -1.26382 42.2602L7.71169 37.4441ZM5.29256 26.9985C5.29256 22.9715 6.13801 19.5876 7.69928 16.7134L-1.25141 11.8513C-3.72265 16.4006 -4.89346 21.4941 -4.89346 26.9985H5.29256ZM7.68881 16.7326C9.29363 13.8083 11.4939 11.5962 14.358 10.005L9.41129 1.10081C4.85194 3.63378 1.2784 7.24134 -1.24094 11.8321L7.68881 16.7326ZM14.3997 9.98158C17.244 8.36629 20.6391 7.48405 24.7383 7.48405V-2.70196C19.1228 -2.70196 13.9488 -1.4763 9.36961 1.12422L14.3997 9.98158ZM24.7383 7.48405C30.0028 7.48405 33.9159 8.73998 36.8423 10.8927L42.8782 2.68762C37.8311 -1.02516 31.663 -2.70196 24.7383 -2.70196V7.48405ZM36.8423 10.8927C39.7404 13.0246 41.5444 15.8803 42.2795 19.7657L52.2879 17.8722C51.0984 11.5846 47.9534 6.42115 42.8782 2.68762L36.8423 10.8927ZM47.2837 13.7259H32.7804V23.9119H47.2837V13.7259ZM73.5296 19.575H68.4365V35.9729L77.7264 22.4604L73.5296 19.575ZM85.9708 12.4265H91.0638V7.33348H85.9708V12.4265ZM85.9708 26.7923V31.8853H91.0638V26.7923H85.9708ZM75.6604 28.5107L78.8575 32.4752H78.8575L75.6604 28.5107ZM73.5296 51.3311V56.4241H78.6226V51.3311H73.5296ZM60.0573 51.3311H54.9643V56.4241H60.0573V51.3311ZM60.0573 12.7702V7.67717H54.9643V12.7702H60.0573ZM73.5296 12.7702H78.6226V7.67717H73.5296V12.7702ZM77.7264 22.4604C78.8497 20.8265 80.1531 19.6094 81.6351 18.7265L76.4218 9.97569C73.5963 11.6589 71.2338 13.9245 69.3327 16.6897L77.7264 22.4604ZM81.6351 18.7265C83.0113 17.9066 84.4265 17.5195 85.9708 17.5195V7.33348C82.566 7.33348 79.353 8.22944 76.4218 9.97569L81.6351 18.7265ZM80.8778 12.4265V26.7923H91.0638V12.4265H80.8778ZM85.9708 21.6993H82.1903V31.8853H85.9708V21.6993ZM82.1903 21.6993C78.7527 21.6993 75.1951 22.3431 72.4632 24.5462L78.8575 32.4752C78.9667 32.3871 79.7624 31.8853 82.1903 31.8853V21.6993ZM72.4632 24.5462C69.3028 27.095 68.4365 30.9739 68.4365 34.4907H78.6226C78.6226 33.4659 78.7544 32.8703 78.8598 32.5744C78.9508 32.319 78.9887 32.3694 78.8575 32.4752L72.4632 24.5462ZM68.4365 34.4907V51.3311H78.6226V34.4907H68.4365ZM73.5296 46.238H60.0573V56.4241H73.5296V46.238ZM65.1503 51.3311V12.7702H54.9643V51.3311H65.1503ZM60.0573 17.8632H73.5296V7.67717H60.0573V17.8632ZM68.4365 12.7702V19.575H78.6226V12.7702H68.4365ZM133.623 34.7657V39.8587H138.095L138.673 35.4244L133.623 34.7657ZM108.122 34.7657V29.6727H102.686L103.04 35.0971L108.122 34.7657ZM109.84 39.5085L106.16 43.0289L106.238 43.1107L106.32 43.1889L109.84 39.5085ZM118.639 37.9963V32.9033H115.426L114.042 35.8026L118.639 37.9963ZM133.004 37.9963L137.974 39.1102L139.365 32.9033H133.004V37.9963ZM129.499 45.1448L125.572 41.9012L125.565 41.9102L129.499 45.1448ZM123.038 50.0251L125.151 54.6588L123.038 50.0251ZM104.204 49.4064L101.76 53.8749L101.775 53.8828L101.789 53.8907L104.204 49.4064ZM97.2617 42.5329L92.8064 45.0004L92.8208 45.0265L92.8356 45.0524L97.2617 42.5329ZM97.2617 21.5684L101.701 24.0653L101.709 24.0506L101.717 24.0359L97.2617 21.5684ZM104.135 14.6948L101.721 10.2105L101.706 10.2184L101.692 10.2263L104.135 14.6948ZM124.481 14.626L126.871 10.1283L124.481 14.626ZM131.355 21.3622L126.916 23.8591L126.924 23.8741L126.933 23.889L131.355 21.3622ZM120.082 28.2358V33.3288H125.175V28.2358H120.082ZM118.432 24.3866L115.079 28.2194L115.125 28.2598L115.172 28.2991L118.432 24.3866ZM110.253 24.3178L113.496 28.2443L113.546 28.2033L113.595 28.161L110.253 24.3178ZM108.191 28.2358L103.182 27.3131L102.074 33.3288H108.191V28.2358ZM128.736 31.6038C128.736 32.4357 128.682 33.2696 128.573 34.107L138.673 35.4244C138.839 34.1539 138.922 32.8799 138.922 31.6038H128.736ZM133.623 29.6727H108.122V39.8587H133.623V29.6727ZM103.04 35.0971C103.221 37.8764 104.023 40.7943 106.16 43.0289L113.521 35.9881C113.642 36.1148 113.298 35.8708 113.204 34.4342L103.04 35.0971ZM106.32 43.1889C108.42 45.1976 111.054 46.1137 113.827 46.1137V35.9277C113.564 35.9277 113.452 35.8875 113.434 35.8807C113.422 35.876 113.416 35.8728 113.411 35.8699C113.406 35.8668 113.39 35.8557 113.361 35.828L106.32 43.1889ZM113.827 46.1137C115.729 46.1137 117.671 45.6789 119.424 44.5765C121.18 43.4731 122.414 41.9101 123.235 40.19L114.042 35.8026C113.967 35.9595 113.917 36.0203 113.913 36.0244C113.911 36.0266 113.919 36.0178 113.936 36.0026C113.953 35.9873 113.976 35.9697 114.004 35.9526C114.064 35.915 114.105 35.9036 114.1 35.9048C114.091 35.9074 114.008 35.9277 113.827 35.9277V46.1137ZM118.639 43.0893H133.004V32.9033H118.639V43.0893ZM128.035 36.8824C127.615 38.755 126.805 40.4088 125.572 41.9012L133.425 48.3885C135.675 45.6651 137.202 42.5532 137.974 39.1102L128.035 36.8824ZM125.565 41.9102C124.398 43.329 122.885 44.4969 120.924 45.3914L125.151 54.6588C128.414 53.1704 131.208 51.0848 133.433 48.3794L125.565 41.9102ZM120.924 45.3914C119.04 46.2506 116.884 46.7192 114.377 46.7192V56.9052C118.194 56.9052 121.811 56.1824 125.151 54.6588L120.924 45.3914ZM114.377 46.7192C111.31 46.7192 108.767 46.0789 106.619 44.9222L101.789 53.8907C105.598 55.9417 109.837 56.9052 114.377 56.9052V46.7192ZM106.648 44.938C104.566 43.7993 102.929 42.1929 101.688 40.0134L92.8356 45.0524C94.9859 48.8299 97.977 51.8059 101.76 53.8749L106.648 44.938ZM101.717 40.0653C100.557 37.97 99.8802 35.3449 99.8802 32.0162H89.6942C89.6942 36.7527 90.6675 41.1385 92.8064 45.0004L101.717 40.0653ZM99.8802 32.0162C99.8802 28.685 100.557 26.0976 101.701 24.0653L92.8228 19.0715C90.6666 22.9046 89.6942 27.2825 89.6942 32.0162H99.8802ZM101.717 24.0359C102.908 21.8848 104.509 20.2951 106.579 19.1632L101.692 10.2263C97.8958 12.3021 94.9143 15.2948 92.8064 19.1008L101.717 24.0359ZM106.55 19.179C108.689 18.027 111.253 17.382 114.377 17.382V7.19601C109.802 7.19601 105.538 8.15488 101.721 10.2105L106.55 19.179ZM114.377 17.382C117.469 17.382 119.996 18.0101 122.092 19.1238L126.871 10.1283C123.101 8.12591 118.891 7.19601 114.377 7.19601V17.382ZM122.092 19.1238C124.152 20.2183 125.737 21.7637 126.916 23.8591L135.794 18.8653C133.673 15.0952 130.676 12.1499 126.871 10.1283L122.092 19.1238ZM126.933 23.889C128.068 25.8749 128.736 28.3845 128.736 31.6038H138.922C138.922 26.9415 137.941 22.6232 135.777 18.8353L126.933 23.889ZM125.175 28.2358C125.175 25.3318 124.138 22.5115 121.693 20.474L115.172 28.2991C115.156 28.2857 115.12 28.2525 115.08 28.1985C115.039 28.1439 115.008 28.0887 114.988 28.0424C114.947 27.9456 114.989 27.9772 114.989 28.2358H125.175ZM121.786 20.5537C119.638 18.6737 117.022 17.8501 114.308 17.8501V28.0361C114.894 28.0361 115.028 28.1748 115.079 28.2194L121.786 20.5537ZM114.308 17.8501C111.665 17.8501 109.054 18.6106 106.911 20.4746L113.595 28.161C113.611 28.1471 113.629 28.1315 113.692 28.1102C113.767 28.085 113.955 28.0361 114.308 28.0361V17.8501ZM107.009 20.3913C104.788 22.226 103.655 24.7479 103.182 27.3131L113.199 29.1584C113.285 28.6958 113.392 28.4401 113.454 28.3223C113.509 28.2181 113.529 28.217 113.496 28.2443L107.009 20.3913ZM108.191 33.3288H120.082V23.1428H108.191V33.3288ZM145.46 21.5684L140.891 19.3189L140.877 19.3473L140.863 19.376L145.46 21.5684ZM151.371 14.6948L148.637 10.398L148.619 10.4094L148.601 10.421L151.371 14.6948ZM166.631 13.8699L164.185 18.337L166.631 13.8699ZM171.099 18.1316L166.712 20.7188L176.192 36.7935V18.1316H171.099ZM171.099 12.7702V7.67717H166.006V12.7702H171.099ZM184.571 12.7702H189.664V7.67717H184.571V12.7702ZM184.571 51.3311V56.4241H189.664V51.3311H184.571ZM171.099 51.3311H166.006V56.4241H171.099V51.3311ZM171.099 45.9697H176.192V27.3078L166.712 43.3825L171.099 45.9697ZM166.562 50.2313L164.16 45.7403L164.138 45.7522L164.116 45.7642L166.562 50.2313ZM151.371 49.4064L148.601 53.6803L148.619 53.6918L148.637 53.7032L151.371 49.4064ZM145.46 42.5329L140.85 44.6981L140.87 44.7404L140.891 44.7823L145.46 42.5329ZM169.037 26.1737L165.317 29.653L165.347 29.6845L165.377 29.7155L169.037 26.1737ZM159.07 26.1737L162.732 29.7134L162.761 29.6835L162.789 29.653L159.07 26.1737ZM159.07 37.9275L155.296 41.3476L155.323 41.3774L155.351 41.4069L159.07 37.9275ZM169.037 37.9275L165.377 34.3858L165.347 34.4167L165.317 34.4482L169.037 37.9275ZM148.422 32.0162C148.422 28.6328 149.024 25.9269 150.057 23.7608L140.863 19.376C139.055 23.1669 138.236 27.4264 138.236 32.0162H148.422ZM150.029 23.8179C151.142 21.5579 152.532 20.0117 154.141 18.9686L148.601 10.421C145.262 12.5855 142.711 15.6218 140.891 19.3189L150.029 23.8179ZM154.106 18.9916C155.785 17.9228 157.627 17.382 159.757 17.382V7.19601C155.747 7.19601 151.998 8.25912 148.637 10.398L154.106 18.9916ZM159.757 17.382C161.739 17.382 163.153 17.7721 164.185 18.337L169.077 9.40289C166.259 7.85992 163.091 7.19601 159.757 7.19601V17.382ZM164.185 18.337C165.353 18.9769 166.151 19.7676 166.712 20.7188L175.486 15.5444C173.939 12.9213 171.758 10.8709 169.077 9.40289L164.185 18.337ZM176.192 18.1316V12.7702H166.006V18.1316H176.192ZM171.099 17.8632H184.571V7.67717H171.099V17.8632ZM179.478 12.7702V51.3311H189.664V12.7702H179.478ZM184.571 46.238H171.099V56.4241H184.571V46.238ZM176.192 51.3311V45.9697H166.006V51.3311H176.192ZM166.712 43.3825C166.169 44.303 165.373 45.0917 164.16 45.7403L168.964 54.7222C171.692 53.2629 173.921 51.2106 175.486 48.5568L166.712 43.3825ZM164.116 45.7642C163.072 46.3359 161.677 46.7192 159.757 46.7192V56.9052C163.062 56.9052 166.203 56.2346 169.008 54.6983L164.116 45.7642ZM159.757 46.7192C157.627 46.7192 155.785 46.1785 154.106 45.1097L148.637 53.7032C151.998 55.8421 155.747 56.9052 159.757 56.9052V46.7192ZM154.141 45.1326C152.532 44.0895 151.142 42.5434 150.029 40.2833L140.891 44.7823C142.711 48.4795 145.262 51.5157 148.601 53.6803L154.141 45.1326ZM150.07 40.3676C149.023 38.139 148.422 35.3972 148.422 32.0162H138.236C138.236 36.6087 139.056 40.8779 140.85 44.6981L150.07 40.3676ZM176.192 32.0162C176.192 28.5695 175.208 25.2269 172.696 22.6319L165.377 29.7155C165.615 29.9615 166.006 30.514 166.006 32.0162H176.192ZM172.756 22.6944C170.45 20.2293 167.447 18.9499 164.088 18.9499V29.1359C164.669 29.1359 164.965 29.277 165.317 29.653L172.756 22.6944ZM164.088 18.9499C160.72 18.9499 157.681 20.2027 155.351 22.6944L162.789 29.653C163.116 29.3036 163.423 29.1359 164.088 29.1359V18.9499ZM155.408 22.6339C152.898 25.2301 151.984 28.6087 151.984 32.0162H162.17C162.17 30.3831 162.584 29.8667 162.732 29.7134L155.408 22.6339ZM151.984 32.0162C151.984 35.4255 152.92 38.726 155.296 41.3476L162.844 34.5075C162.562 34.1963 162.17 33.556 162.17 32.0162H151.984ZM155.351 41.4069C157.681 43.8985 160.72 45.1514 164.088 45.1514V34.9653C163.423 34.9653 163.116 34.7977 162.789 34.4482L155.351 41.4069ZM164.088 45.1514C167.447 45.1514 170.45 43.8719 172.756 41.4069L165.317 34.4482C164.965 34.8243 164.669 34.9653 164.088 34.9653V45.1514ZM172.696 41.4693C175.224 38.8573 176.192 35.479 176.192 32.0162H166.006C166.006 33.5941 165.598 34.1567 165.377 34.3858L172.696 41.4693ZM221.186 39.8521H226.279V34.7591H221.186V39.8521ZM221.186 51.3311V56.4241H226.279V51.3311H221.186ZM200.565 23.9741H205.658V18.8811H200.565V23.9741ZM195.822 23.9741H190.729V29.0671H195.822V23.9741ZM195.822 12.7702V7.67717H190.729V12.7702H195.822ZM200.565 12.7702V17.8632H205.658V12.7702H200.565ZM200.565 3.42208V-1.67093H195.472V3.42208H200.565ZM214.106 3.42208H219.199V-1.67093H214.106V3.42208ZM214.106 12.7702H209.013V17.8632H214.106V12.7702ZM221.117 12.7702H226.21V7.67717H221.117V12.7702ZM221.117 23.9741V29.0671H226.21V23.9741H221.117ZM214.106 23.9741V18.8811H209.013V23.9741H214.106ZM214.793 39.1648L211.192 42.7661L211.278 42.8518L211.367 42.9333L214.793 39.1648ZM216.093 39.8521V51.3311H226.279V39.8521H216.093ZM221.186 46.238H215.343V56.4241H221.186V46.238ZM215.343 46.238C211.19 46.238 209.013 45.2113 207.844 44.0528C206.683 42.9029 205.658 40.7734 205.658 36.6903H195.472C195.472 42.3677 196.91 47.5586 200.675 51.289C204.432 55.0106 209.644 56.4241 215.343 56.4241V46.238ZM205.658 36.6903V23.9741H195.472V36.6903H205.658ZM200.565 18.8811H195.822V29.0671H200.565V18.8811ZM200.915 23.9741V12.7702H190.729V23.9741H200.915ZM195.822 17.8632H200.565V7.67717H195.822V17.8632ZM205.658 12.7702V3.42208H195.472V12.7702H205.658ZM200.565 8.51509H214.106V-1.67093H200.565V8.51509ZM209.013 3.42208V12.7702H219.199V3.42208H209.013ZM214.106 17.8632H221.117V7.67717H214.106V17.8632ZM216.024 12.7702V23.9741H226.21V12.7702H216.024ZM221.117 18.8811H214.106V29.0671H221.117V18.8811ZM209.013 23.9741V36.8965H219.199V23.9741H209.013ZM209.013 36.8965C209.013 38.4927 209.328 40.9026 211.192 42.7661L218.395 35.5635C218.874 36.0434 219.076 36.527 219.152 36.777C219.222 37.0072 219.199 37.079 219.199 36.8965H209.013ZM211.367 42.9333C213.269 44.6621 215.658 44.9452 217.268 44.9452V34.7591C217.011 34.7591 217.001 34.7308 217.153 34.7731C217.316 34.8183 217.75 34.9701 218.219 35.3963L211.367 42.9333ZM217.268 44.9452H221.186V34.7591H217.268V44.9452ZM289.393 2.87219H294.486V-2.22081H289.393V2.87219ZM289.393 13.595V18.688H294.486V13.595H289.393ZM276.47 13.595V8.502H271.377V13.595H276.47ZM276.47 51.3311V56.4241H281.563V51.3311H276.47ZM262.998 51.3311H257.905V56.4241H262.998V51.3311ZM262.998 13.595H268.091V8.502H262.998V13.595ZM250.213 13.595H245.12V18.688H250.213V13.595ZM250.213 2.87219V-2.22081H245.12V2.87219H250.213ZM284.3 2.87219V13.595H294.486V2.87219H284.3ZM289.393 8.502H276.47V18.688H289.393V8.502ZM271.377 13.595V51.3311H281.563V13.595H271.377ZM276.47 46.238H262.998V56.4241H276.47V46.238ZM268.091 51.3311V13.595H257.905V51.3311H268.091ZM262.998 8.502H250.213V18.688H262.998V8.502ZM255.306 13.595V2.87219H245.12V13.595H255.306ZM250.213 7.9652H289.393V-2.22081H250.213V7.9652ZM308.124 49.4064L305.738 53.9059L305.752 53.9133L305.766 53.9206L308.124 49.4064ZM300.976 42.5329L305.373 39.9624L300.976 42.5329ZM300.976 21.5684L296.609 18.948L296.594 18.9729L296.579 18.998L300.976 21.5684ZM308.193 14.6948L305.835 10.1806L305.821 10.1879L305.807 10.1953L308.193 14.6948ZM328.883 14.6948L326.497 19.1943L326.51 19.2017L326.524 19.209L328.883 14.6948ZM336.1 21.5684L331.703 24.1388L331.718 24.1638L331.733 24.1887L336.1 21.5684ZM336.1 42.5329L331.715 39.9419L331.709 39.9521L331.703 39.9624L336.1 42.5329ZM328.883 49.4064L326.524 44.8923L328.883 49.4064ZM323.178 38.065L319.398 34.6512L319.392 34.658L323.178 38.065ZM323.178 26.0362L319.392 29.4433L319.423 29.4775L319.454 29.5113L323.178 26.0362ZM313.898 38.065L310.049 41.4006L313.898 38.065ZM318.503 46.7192C315.383 46.7192 312.747 46.0751 310.483 44.8923L305.766 53.9206C309.642 55.9455 313.926 56.9052 318.503 56.9052V46.7192ZM310.51 44.907C308.329 43.7504 306.64 42.1304 305.373 39.9624L296.579 45.1033C298.794 48.8925 301.87 51.8548 305.738 53.9059L310.51 44.907ZM305.373 39.9624C304.159 37.8868 303.457 35.2994 303.457 32.0162H293.271C293.271 36.7981 294.31 41.2218 296.579 45.1033L305.373 39.9624ZM303.457 32.0162C303.457 28.7906 304.154 26.2231 305.373 24.1388L296.579 18.998C294.315 22.8708 293.271 27.2686 293.271 32.0162H303.457ZM305.343 24.1887C306.661 21.9929 308.386 20.3571 310.579 19.1943L305.807 10.1953C301.951 12.2402 298.865 15.1867 296.609 18.948L305.343 24.1887ZM310.551 19.209C312.816 18.0261 315.451 17.382 318.572 17.382V7.19601C313.995 7.19601 309.711 8.15575 305.835 10.1806L310.551 19.209ZM318.572 17.382C321.694 17.382 324.294 18.0265 326.497 19.1943L331.269 10.1953C327.422 8.15536 323.148 7.19601 318.572 7.19601V17.382ZM326.524 19.209C328.749 20.3713 330.447 21.9904 331.703 24.1388L340.497 18.998C338.27 15.1892 335.156 12.226 331.241 10.1806L326.524 19.209ZM331.733 24.1887C332.978 26.2646 333.688 28.8138 333.688 32.0162H343.874C343.874 27.2453 342.796 22.8293 340.467 18.948L331.733 24.1887ZM333.688 32.0162C333.688 35.2168 332.979 37.8036 331.715 39.9419L340.485 45.1238C342.795 41.2134 343.874 36.789 343.874 32.0162H333.688ZM331.703 39.9624C330.447 42.1108 328.749 43.7299 326.524 44.8923L331.241 53.9206C335.156 51.8753 338.27 48.912 340.497 45.1033L331.703 39.9624ZM326.524 44.8923C324.26 46.0751 321.624 46.7192 318.503 46.7192V56.9052C323.081 56.9052 327.365 55.9455 331.241 53.9206L326.524 44.8923ZM318.503 45.2201C321.8 45.2201 324.743 43.9392 326.963 41.4721L319.392 34.658C319.138 34.9403 318.965 35.0341 318.503 35.0341V45.2201ZM326.957 41.4788C329.352 38.8271 330.195 35.4255 330.195 32.0162H320.009C320.009 33.8309 319.569 34.4618 319.398 34.6512L326.957 41.4788ZM330.195 32.0162C330.195 28.6198 329.357 25.1929 326.901 22.5612L319.454 29.5113C319.564 29.6289 320.009 30.1888 320.009 32.0162H330.195ZM326.963 22.6292C324.77 20.1924 321.864 18.8811 318.572 18.8811V29.0671C318.947 29.0671 319.111 29.1306 319.392 29.4433L326.963 22.6292ZM318.572 18.8811C315.281 18.8811 312.374 20.1924 310.181 22.6292L317.753 29.4433C318.034 29.1306 318.198 29.0671 318.572 29.0671V18.8811ZM310.181 22.6292C307.811 25.2627 307.018 28.6627 307.018 32.0162H317.204C317.204 30.1459 317.648 29.5592 317.753 29.4433L310.181 22.6292ZM307.018 32.0162C307.018 35.3469 307.756 38.7538 310.049 41.4006L317.747 34.7294C317.658 34.6268 317.204 34.0012 317.204 32.0162H307.018ZM310.049 41.4006C312.244 43.9327 315.203 45.2201 318.503 45.2201V35.0341C318.197 35.0341 318.064 34.9812 318.024 34.9633C317.989 34.9472 317.897 34.9021 317.747 34.7294L310.049 41.4006ZM371.481 13.8699L369.035 18.337L369.057 18.3491L369.079 18.3609L371.481 13.8699ZM376.018 18.1316L371.631 20.7188L381.111 36.7935V18.1316H376.018ZM376.018 12.7702V7.67717H370.925V12.7702H376.018ZM389.49 12.7702H394.583V7.67717H389.49V12.7702ZM387.428 60.6791L382.83 58.4895L382.823 58.5035L382.816 58.5175L387.428 60.6791ZM380.967 67.6902L378.367 63.311L378.351 63.32L378.336 63.3291L380.967 67.6902ZM355.672 66.1093L358.809 62.0974L355.672 66.1093ZM349.554 54.6991V49.6061H343.9L344.489 55.2298L349.554 54.6991ZM362.82 54.6991L367.792 53.5943L366.906 49.6061H362.82V54.6991ZM364.883 57.586L362.183 61.9049L364.883 57.586ZM376.018 45.9697H381.111V27.3078L371.631 43.3825L376.018 45.9697ZM371.481 50.2313L369.079 45.7403L369.057 45.7522L369.035 45.7642L371.481 50.2313ZM356.291 49.4064L353.52 53.6803L353.538 53.6918L353.556 53.7032L356.291 49.4064ZM350.379 42.5329L345.769 44.6981L345.789 44.7404L345.81 44.7823L350.379 42.5329ZM350.379 21.5684L345.81 19.3189L345.796 19.3473L345.782 19.376L350.379 21.5684ZM356.291 14.6948L353.556 10.398L353.538 10.4094L353.52 10.421L356.291 14.6948ZM373.956 26.1737L370.236 29.653L370.266 29.6845L370.296 29.7155L373.956 26.1737ZM363.989 26.1737L367.651 29.7134L367.68 29.6835L367.708 29.653L363.989 26.1737ZM363.989 37.9275L360.215 41.3476L360.242 41.3774L360.27 41.4069L363.989 37.9275ZM373.956 37.9275L370.296 34.3858L370.266 34.4167L370.236 34.4482L373.956 37.9275ZM364.676 17.382C366.596 17.382 367.991 17.7653 369.035 18.337L373.927 9.40289C371.122 7.86666 367.981 7.19601 364.676 7.19601V17.382ZM369.079 18.3609C370.292 19.0095 371.088 19.7982 371.631 20.7188L380.405 15.5444C378.84 12.8907 376.612 10.8383 373.883 9.37901L369.079 18.3609ZM381.111 18.1316V12.7702H370.925V18.1316H381.111ZM376.018 17.8632H389.49V7.67717H376.018V17.8632ZM384.397 12.7702V50.9186H394.583V12.7702H384.397ZM384.397 50.9186C384.397 53.8816 383.838 56.3719 382.83 58.4895L392.026 62.8688C393.767 59.2126 394.583 55.1958 394.583 50.9186H384.397ZM382.816 58.5175C381.898 60.4758 380.471 62.0615 378.367 63.311L383.567 72.0695C387.328 69.8363 390.208 66.748 392.039 62.8408L382.816 58.5175ZM378.336 63.3291C376.458 64.4621 373.774 65.2092 369.969 65.2092V75.3952C375.053 75.3952 379.702 74.4009 383.597 72.0513L378.336 63.3291ZM369.969 65.2092C364.792 65.2092 361.242 64 358.809 62.0974L352.534 70.1211C357.25 73.8091 363.232 75.3952 369.969 75.3952V65.2092ZM358.809 62.0974C356.401 60.2139 354.99 57.7075 354.62 54.1685L344.489 55.2298C345.126 61.3138 347.794 66.4141 352.534 70.1211L358.809 62.0974ZM349.554 59.7921H362.82V49.6061H349.554V59.7921ZM357.849 55.8039C358.427 58.4082 359.956 60.5129 362.183 61.9049L367.582 53.2672C367.543 53.2429 367.606 53.2761 367.687 53.3885C367.723 53.4397 367.751 53.4904 367.77 53.5341C367.789 53.577 367.793 53.6001 367.792 53.5943L357.849 55.8039ZM362.183 61.9049C364.325 63.2436 366.766 63.7101 369.144 63.7101V53.5241C368.04 53.5241 367.639 53.3032 367.582 53.2672L362.183 61.9049ZM369.144 63.7101C372.379 63.7101 375.694 62.7778 378.098 60.0845C380.405 57.5011 381.111 54.1365 381.111 50.9186H370.925C370.925 51.8391 370.82 52.4528 370.707 52.8339C370.652 53.0188 370.598 53.1366 370.562 53.2048C370.526 53.2711 370.503 53.297 370.5 53.3004C370.498 53.3029 370.498 53.3032 370.492 53.3073C370.485 53.3121 370.45 53.3348 370.37 53.3646C370.203 53.427 369.827 53.5241 369.144 53.5241V63.7101ZM381.111 50.9186V45.9697H370.925V50.9186H381.111ZM371.631 43.3825C371.088 44.303 370.292 45.0917 369.079 45.7403L373.883 54.7222C376.612 53.2629 378.84 51.2106 380.405 48.5568L371.631 43.3825ZM369.035 45.7642C367.991 46.3359 366.596 46.7192 364.676 46.7192V56.9052C367.981 56.9052 371.122 56.2346 373.927 54.6983L369.035 45.7642ZM364.676 46.7192C362.546 46.7192 360.704 46.1785 359.025 45.1097L353.556 53.7032C356.917 55.8421 360.666 56.9052 364.676 56.9052V46.7192ZM359.061 45.1326C357.451 44.0895 356.061 42.5434 354.949 40.2833L345.81 44.7823C347.63 48.4795 350.181 51.5157 353.52 53.6803L359.061 45.1326ZM354.989 40.3676C353.942 38.139 353.341 35.3972 353.341 32.0162H343.155C343.155 36.6087 343.975 40.8779 345.769 44.6981L354.989 40.3676ZM353.341 32.0162C353.341 28.6328 353.943 25.9269 354.976 23.7608L345.782 19.376C343.974 23.1669 343.155 27.4264 343.155 32.0162H353.341ZM354.949 23.8179C356.061 21.5579 357.451 20.0117 359.061 18.9686L353.52 10.421C350.181 12.5855 347.63 15.6218 345.81 19.3189L354.949 23.8179ZM359.025 18.9916C360.704 17.9228 362.546 17.382 364.676 17.382V7.19601C360.666 7.19601 356.917 8.25912 353.556 10.398L359.025 18.9916ZM381.111 32.0162C381.111 28.5695 380.127 25.2269 377.616 22.6319L370.296 29.7155C370.534 29.9615 370.925 30.514 370.925 32.0162H381.111ZM377.675 22.6944C375.369 20.2293 372.366 18.9499 369.007 18.9499V29.1359C369.588 29.1359 369.885 29.277 370.236 29.653L377.675 22.6944ZM369.007 18.9499C365.639 18.9499 362.601 20.2027 360.27 22.6944L367.708 29.653C368.035 29.3036 368.342 29.1359 369.007 29.1359V18.9499ZM360.327 22.6339C357.818 25.2301 356.903 28.6087 356.903 32.0162H367.089C367.089 30.3831 367.503 29.8667 367.651 29.7134L360.327 22.6339ZM356.903 32.0162C356.903 35.4255 357.839 38.726 360.215 41.3476L367.763 34.5075C367.481 34.1963 367.089 33.556 367.089 32.0162H356.903ZM360.27 41.4069C362.601 43.8985 365.639 45.1514 369.007 45.1514V34.9653C368.342 34.9653 368.035 34.7977 367.708 34.4482L360.27 41.4069ZM369.007 45.1514C372.366 45.1514 375.369 43.8719 377.675 41.4069L370.236 34.4482C369.885 34.8243 369.588 34.9653 369.007 34.9653V45.1514ZM377.616 41.4693C380.143 38.8573 381.111 35.479 381.111 32.0162H370.925C370.925 33.5941 370.517 34.1567 370.296 34.3858L377.616 41.4693ZM439.989 34.7657V39.8587H444.461L445.04 35.4244L439.989 34.7657ZM414.488 34.7657V29.6727H409.052L409.406 35.0971L414.488 34.7657ZM416.207 39.5085L412.526 43.0289L412.605 43.1107L412.686 43.1889L416.207 39.5085ZM425.005 37.9963V32.9033H421.792L420.409 35.8026L425.005 37.9963ZM439.371 37.9963L444.341 39.1102L445.732 32.9033H439.371V37.9963ZM435.865 45.1448L431.939 41.9012L431.931 41.9102L435.865 45.1448ZM429.404 50.0251L431.518 54.6588L429.404 50.0251ZM410.57 49.4064L408.127 53.8749L408.141 53.8828L408.156 53.8907L410.57 49.4064ZM403.628 42.5329L399.173 45.0004L399.187 45.0265L399.202 45.0524L403.628 42.5329ZM403.628 21.5684L408.067 24.0653L408.075 24.0506L408.083 24.0359L403.628 21.5684ZM410.502 14.6948L408.087 10.2105L408.073 10.2184L408.058 10.2263L410.502 14.6948ZM430.848 14.626L433.237 10.1283H433.237L430.848 14.626ZM437.721 21.3622L433.282 23.8591L433.291 23.8741L433.299 23.889L437.721 21.3622ZM426.448 28.2358V33.3288H431.541V28.2358H426.448ZM424.799 24.3866L421.445 28.2194L421.491 28.2598L421.538 28.2991L424.799 24.3866ZM416.619 24.3178L419.863 28.2443L419.913 28.2033L419.961 28.161L416.619 24.3178ZM414.557 28.2358L409.548 27.3131L408.44 33.3288H414.557V28.2358ZM435.103 31.6038C435.103 32.4357 435.048 33.2696 434.939 34.107L445.04 35.4244C445.205 34.1539 445.289 32.8799 445.289 31.6038H435.103ZM439.989 29.6727H414.488V39.8587H439.989V29.6727ZM409.406 35.0971C409.587 37.8764 410.389 40.7943 412.526 43.0289L419.887 35.9881C420.008 36.1148 419.664 35.8708 419.571 34.4342L409.406 35.0971ZM412.686 43.1889C414.786 45.1976 417.421 46.1137 420.193 46.1137V35.9277C419.93 35.9277 419.818 35.8875 419.8 35.8807C419.788 35.876 419.782 35.8728 419.778 35.8699C419.773 35.8668 419.756 35.8557 419.727 35.828L412.686 43.1889ZM420.193 46.1137C422.095 46.1137 424.037 45.6789 425.791 44.5765C427.546 43.4731 428.78 41.9101 429.601 40.19L420.409 35.8026C420.334 35.9595 420.283 36.0203 420.28 36.0244C420.278 36.0266 420.285 36.0178 420.302 36.0026C420.32 35.9873 420.343 35.9697 420.37 35.9526C420.43 35.915 420.471 35.9036 420.467 35.9048C420.457 35.9074 420.374 35.9277 420.193 35.9277V46.1137ZM425.005 43.0893H439.371V32.9033H425.005V43.0893ZM434.401 36.8824C433.981 38.755 433.172 40.4088 431.939 41.9012L439.792 48.3885C442.042 45.6651 443.569 42.5532 444.341 39.1102L434.401 36.8824ZM431.931 41.9102C430.765 43.329 429.251 44.4969 427.29 45.3914L431.518 54.6588C434.781 53.1704 437.575 51.0848 439.799 48.3794L431.931 41.9102ZM427.29 45.3914C425.407 46.2506 423.251 46.7192 420.743 46.7192V56.9052C424.56 56.9052 428.178 56.1824 431.518 54.6588L427.29 45.3914ZM420.743 46.7192C417.677 46.7192 415.133 46.0789 412.985 44.9222L408.156 53.8907C411.965 55.9417 416.203 56.9052 420.743 56.9052V46.7192ZM413.014 44.938C410.932 43.7993 409.295 42.1929 408.054 40.0134L399.202 45.0524C401.352 48.8299 404.343 51.8059 408.127 53.8749L413.014 44.938ZM408.083 40.0653C406.923 37.97 406.247 35.3449 406.247 32.0162H396.061C396.061 36.7527 397.034 41.1385 399.173 45.0004L408.083 40.0653ZM406.247 32.0162C406.247 28.685 406.924 26.0976 408.067 24.0653L399.189 19.0715C397.033 22.9046 396.061 27.2825 396.061 32.0162H406.247ZM408.083 24.0359C409.275 21.8848 410.876 20.2951 412.945 19.1632L408.058 10.2263C404.262 12.3021 401.281 15.2948 399.173 19.1008L408.083 24.0359ZM412.916 19.179C415.056 18.027 417.62 17.382 420.743 17.382V7.19601C416.169 7.19601 411.905 8.15488 408.087 10.2105L412.916 19.179ZM420.743 17.382C423.836 17.382 426.362 18.0101 428.458 19.1238L433.237 10.1283C429.468 8.12591 425.258 7.19601 420.743 7.19601V17.382ZM428.458 19.1238C430.518 20.2183 432.104 21.7637 433.282 23.8591L442.16 18.8653C440.039 15.0952 437.042 12.1499 433.237 10.1283L428.458 19.1238ZM433.299 23.889C434.434 25.8749 435.103 28.3845 435.103 31.6038H445.289C445.289 26.9415 444.308 22.6232 442.143 18.8353L433.299 23.889ZM431.541 28.2358C431.541 25.3318 430.504 22.5115 428.059 20.474L421.538 28.2991C421.522 28.2857 421.487 28.2525 421.446 28.1985C421.405 28.1439 421.375 28.0887 421.355 28.0424C421.313 27.9456 421.355 27.9772 421.355 28.2358H431.541ZM428.153 20.5537C426.004 18.6737 423.388 17.8501 420.675 17.8501V28.0361C421.261 28.0361 421.394 28.1748 421.445 28.2194L428.153 20.5537ZM420.675 17.8501C418.031 17.8501 415.421 18.6106 413.277 20.4746L419.961 28.161C419.977 28.1471 419.996 28.1315 420.059 28.1102C420.133 28.085 420.321 28.0361 420.675 28.0361V17.8501ZM413.376 20.3913C411.155 22.226 410.021 24.7479 409.548 27.3131L419.566 29.1584C419.651 28.6958 419.758 28.4401 419.82 28.3223C419.875 28.2181 419.896 28.217 419.863 28.2443L413.376 20.3913ZM414.557 33.3288H426.448V23.1428H414.557V33.3288ZM474.647 39.8521H479.74V34.7591H474.647V39.8521ZM474.647 51.3311V56.4241H479.74V51.3311H474.647ZM454.026 23.9741H459.119V18.8811H454.026V23.9741ZM449.283 23.9741H444.19V29.0671H449.283V23.9741ZM449.283 12.7702V7.67717H444.19V12.7702H449.283ZM454.026 12.7702V17.8632H459.119V12.7702H454.026ZM454.026 3.42208V-1.67093H448.933V3.42208H454.026ZM467.567 3.42208H472.66V-1.67093H467.567V3.42208ZM467.567 12.7702H462.474V17.8632H467.567V12.7702ZM474.578 12.7702H479.671V7.67717H474.578V12.7702ZM474.578 23.9741V29.0671H479.671V23.9741H474.578ZM467.567 23.9741V18.8811H462.474V23.9741H467.567ZM468.254 39.1648L464.653 42.7661L464.739 42.8518L464.829 42.9333L468.254 39.1648ZM469.554 39.8521V51.3311H479.74V39.8521H469.554ZM474.647 46.238H468.804V56.4241H474.647V46.238ZM468.804 46.238C464.651 46.238 462.475 45.2113 461.305 44.0528C460.144 42.9029 459.119 40.7734 459.119 36.6903H448.933C448.933 42.3677 450.371 47.5586 454.136 51.289C457.893 55.0106 463.105 56.4241 468.804 56.4241V46.238ZM459.119 36.6903V23.9741H448.933V36.6903H459.119ZM454.026 18.8811H449.283V29.0671H454.026V18.8811ZM454.376 23.9741V12.7702H444.19V23.9741H454.376ZM449.283 17.8632H454.026V7.67717H449.283V17.8632ZM459.119 12.7702V3.42208H448.933V12.7702H459.119ZM454.026 8.51509H467.567V-1.67093H454.026V8.51509ZM462.474 3.42208V12.7702H472.66V3.42208H462.474ZM467.567 17.8632H474.578V7.67717H467.567V17.8632ZM469.485 12.7702V23.9741H479.671V12.7702H469.485ZM474.578 18.8811H467.567V29.0671H474.578V18.8811ZM462.474 23.9741V36.8965H472.66V23.9741H462.474ZM462.474 36.8965C462.474 38.4927 462.79 40.9026 464.653 42.7661L471.856 35.5635C472.336 36.0434 472.537 36.527 472.613 36.777C472.683 37.0072 472.66 37.079 472.66 36.8965H462.474ZM464.829 42.9333C466.73 44.6621 469.119 44.9452 470.729 44.9452V34.7591C470.472 34.7591 470.462 34.7308 470.614 34.7731C470.777 34.8183 471.212 34.9701 471.68 35.3963L464.829 42.9333ZM470.729 44.9452H474.647V34.7591H470.729V44.9452ZM522.824 16.8943L518.965 20.2186L518.993 20.2503L519.021 20.2816L522.824 16.8943ZM526.742 51.3311V56.4241H531.835V51.3311H526.742ZM513.27 51.3311H508.177V56.4241H513.27V51.3311ZM511.551 25.4863L507.752 28.8784L507.783 28.9127L507.814 28.9466L511.551 25.4863ZM502.203 25.4863L505.94 28.9466L505.971 28.9127L506.002 28.8784L502.203 25.4863ZM500.485 51.3311V56.4241H505.578V51.3311H500.485ZM487.012 51.3311H481.919V56.4241H487.012V51.3311ZM487.012 0.466436V-4.62657H481.919V0.466436H487.012ZM500.485 0.466436H505.578V-4.62657H500.485V0.466436ZM500.485 18.2691H495.392V34.7319L504.688 21.145L500.485 18.2691ZM505.296 14.0762L507.656 18.5897L507.674 18.5799L507.693 18.57L505.296 14.0762ZM512.376 17.5195C515.49 17.5195 517.489 18.5045 518.965 20.2186L526.682 13.5701C523.027 9.32705 518.06 7.33348 512.376 7.33348V17.5195ZM519.021 20.2816C520.588 22.0413 521.649 24.6984 521.649 28.8544H531.835C531.835 22.9291 530.284 17.6128 526.627 13.507L519.021 20.2816ZM521.649 28.8544V51.3311H531.835V28.8544H521.649ZM526.742 46.238H513.27V56.4241H526.742V46.238ZM518.363 51.3311V30.6415H508.177V51.3311H518.363ZM518.363 30.6415C518.363 27.5609 517.545 24.4632 515.288 22.0261L507.814 28.9466C507.849 28.9839 508.177 29.323 508.177 30.6415H518.363ZM515.35 22.0943C513.117 19.5935 510.129 18.4687 506.946 18.4687V28.6547C507.339 28.6547 507.521 28.7188 507.577 28.742C507.619 28.7595 507.668 28.7843 507.752 28.8784L515.35 22.0943ZM506.946 18.4687C503.753 18.4687 500.685 19.54 498.404 22.0943L506.002 28.8784C506.061 28.8124 506.1 28.7878 506.163 28.7621C506.245 28.7287 506.477 28.6547 506.946 28.6547V18.4687ZM498.466 22.0261C496.209 24.4632 495.392 27.5609 495.392 30.6415H505.578C505.578 29.323 505.905 28.9839 505.94 28.9466L498.466 22.0261ZM495.392 30.6415V51.3311H505.578V30.6415H495.392ZM500.485 46.238H487.012V56.4241H500.485V46.238ZM492.105 51.3311V0.466436H481.919V51.3311H492.105ZM487.012 5.55944H500.485V-4.62657H487.012V5.55944ZM495.392 0.466436V18.2691H505.578V0.466436H495.392ZM504.688 21.145C505.372 20.1456 506.319 19.2881 507.656 18.5897L502.937 9.5626C500.24 10.9721 497.98 12.9098 496.281 15.3931L504.688 21.145ZM507.693 18.57C508.921 17.9148 510.438 17.5195 512.376 17.5195V7.33348C508.998 7.33348 505.795 8.03797 502.899 9.58232L507.693 18.57ZM576.957 34.7657V39.8587H581.428L582.007 35.4244L576.957 34.7657ZM551.456 34.7657V29.6727H546.02L546.373 35.0971L551.456 34.7657ZM553.174 39.5085L549.494 43.0289L549.572 43.1107L549.654 43.1889L553.174 39.5085ZM561.972 37.9963V32.9033H558.76L557.376 35.8026L561.972 37.9963ZM576.338 37.9963L581.308 39.1102L582.699 32.9033H576.338V37.9963ZM572.832 45.1448L568.906 41.9012L568.898 41.9102L572.832 45.1448ZM566.371 50.0251L568.485 54.6588L566.371 50.0251ZM547.538 49.4064L545.094 53.8749L545.108 53.8828L545.123 53.8907L547.538 49.4064ZM540.595 42.5329L536.14 45.0004L536.154 45.0265L536.169 45.0524L540.595 42.5329ZM540.595 21.5684L545.034 24.0653L545.042 24.0506L545.051 24.0359L540.595 21.5684ZM547.469 14.6948L545.054 10.2105L545.04 10.2184L545.025 10.2263L547.469 14.6948ZM567.815 14.626L570.204 10.1283L567.815 14.626ZM574.688 21.3622L570.249 23.8591L570.258 23.8741L570.266 23.889L574.688 21.3622ZM563.416 28.2358V33.3288H568.509V28.2358H563.416ZM561.766 24.3866L558.412 28.2194L558.458 28.2598L558.505 28.2991L561.766 24.3866ZM553.586 24.3178L556.83 28.2443L556.88 28.2033L556.928 28.161L553.586 24.3178ZM551.524 28.2358L546.516 27.3131L545.407 33.3288H551.524V28.2358ZM572.07 31.6038C572.07 32.4357 572.016 33.2696 571.906 34.107L582.007 35.4244C582.173 34.1539 582.256 32.8799 582.256 31.6038H572.07ZM576.957 29.6727H551.456V39.8587H576.957V29.6727ZM546.373 35.0971C546.555 37.8764 547.356 40.7943 549.494 43.0289L556.854 35.9881C556.976 36.1148 556.631 35.8708 556.538 34.4342L546.373 35.0971ZM549.654 43.1889C551.754 45.1976 554.388 46.1137 557.161 46.1137V35.9277C556.897 35.9277 556.786 35.8875 556.767 35.8807C556.755 35.876 556.75 35.8728 556.745 35.8699C556.74 35.8668 556.723 35.8557 556.694 35.828L549.654 43.1889ZM557.161 46.1137C559.062 46.1137 561.004 45.6789 562.758 44.5765C564.513 43.4731 565.748 41.9101 566.569 40.19L557.376 35.8026C557.301 35.9595 557.25 36.0203 557.247 36.0244C557.245 36.0266 557.252 36.0178 557.269 36.0026C557.287 35.9873 557.31 35.9697 557.337 35.9526C557.397 35.915 557.439 35.9036 557.434 35.9048C557.424 35.9074 557.341 35.9277 557.161 35.9277V46.1137ZM561.972 43.0893H576.338V32.9033H561.972V43.0893ZM571.368 36.8824C570.949 38.755 570.139 40.4088 568.906 41.9012L576.759 48.3885C579.009 45.6651 580.536 42.5532 581.308 39.1102L571.368 36.8824ZM568.898 41.9102C567.732 43.329 566.219 44.4969 564.258 45.3914L568.485 54.6588C571.748 53.1704 574.542 51.0848 576.766 48.3794L568.898 41.9102ZM564.258 45.3914C562.374 46.2506 560.218 46.7192 557.711 46.7192V56.9052C561.527 56.9052 565.145 56.1824 568.485 54.6588L564.258 45.3914ZM557.711 46.7192C554.644 46.7192 552.1 46.0789 549.952 44.9222L545.123 53.8907C548.932 55.9417 553.171 56.9052 557.711 56.9052V46.7192ZM549.981 44.938C547.899 43.7993 546.262 42.1929 545.021 40.0134L536.169 45.0524C538.319 48.8299 541.311 51.8059 545.094 53.8749L549.981 44.938ZM545.051 40.0653C543.89 37.97 543.214 35.3449 543.214 32.0162H533.028C533.028 36.7527 534.001 41.1385 536.14 45.0004L545.051 40.0653ZM543.214 32.0162C543.214 28.685 543.891 26.0976 545.034 24.0653L536.156 19.0715C534 22.9046 533.028 27.2825 533.028 32.0162H543.214ZM545.051 24.0359C546.242 21.8848 547.843 20.2951 549.913 19.1632L545.025 10.2263C541.229 12.3021 538.248 15.2948 536.14 19.1008L545.051 24.0359ZM549.883 19.179C552.023 18.027 554.587 17.382 557.711 17.382V7.19601C553.136 7.19601 548.872 8.15488 545.054 10.2105L549.883 19.179ZM557.711 17.382C560.803 17.382 563.329 18.0101 565.425 19.1238L570.204 10.1283C566.435 8.12591 562.225 7.19601 557.711 7.19601V17.382ZM565.425 19.1238C567.486 20.2183 569.071 21.7637 570.249 23.8591L579.127 18.8653C577.007 15.0952 574.009 12.1499 570.204 10.1283L565.425 19.1238ZM570.266 23.889C571.401 25.8749 572.07 28.3845 572.07 31.6038H582.256C582.256 26.9415 581.275 22.6232 579.11 18.8353L570.266 23.889ZM568.509 28.2358C568.509 25.3318 567.471 22.5115 565.026 20.474L558.505 28.2991C558.489 28.2857 558.454 28.2525 558.413 28.1985C558.372 28.1439 558.342 28.0887 558.322 28.0424C558.281 27.9456 558.323 27.9772 558.323 28.2358H568.509ZM565.12 20.5537C562.971 18.6737 560.355 17.8501 557.642 17.8501V28.0361C558.228 28.0361 558.361 28.1748 558.412 28.2194L565.12 20.5537ZM557.642 17.8501C554.998 17.8501 552.388 18.6106 550.244 20.4746L556.928 28.161C556.944 28.1471 556.963 28.1315 557.026 28.1102C557.1 28.085 557.288 28.0361 557.642 28.0361V17.8501ZM550.343 20.3913C548.122 22.226 546.988 24.7479 546.516 27.3131L556.533 29.1584C556.618 28.6958 556.725 28.4401 556.787 28.3223C556.842 28.2181 556.863 28.217 556.83 28.2443L550.343 20.3913ZM551.524 33.3288H563.416V23.1428H551.524V33.3288ZM602.335 19.575H597.242V35.9729L606.532 22.4604L602.335 19.575ZM614.776 12.4265H619.869V7.33348H614.776V12.4265ZM614.776 26.7923V31.8853H619.869V26.7923H614.776ZM604.466 28.5107L607.663 32.4752L604.466 28.5107ZM602.335 51.3311V56.4241H607.428V51.3311H602.335ZM588.862 51.3311H583.769V56.4241H588.862V51.3311ZM588.862 12.7702V7.67717H583.769V12.7702H588.862ZM602.335 12.7702H607.428V7.67717H602.335V12.7702ZM606.532 22.4604C607.655 20.8265 608.958 19.6094 610.44 18.7265L605.227 9.97569C602.401 11.6589 600.039 13.9245 598.138 16.6897L606.532 22.4604ZM610.44 18.7265C611.816 17.9066 613.232 17.5195 614.776 17.5195V7.33348C611.371 7.33348 608.158 8.22944 605.227 9.97569L610.44 18.7265ZM609.683 12.4265V26.7923H619.869V12.4265H609.683ZM614.776 21.6993H610.995V31.8853H614.776V21.6993ZM610.995 21.6993C607.558 21.6993 604 22.3431 601.268 24.5462L607.663 32.4752C607.772 32.3871 608.568 31.8853 610.995 31.8853V21.6993ZM601.268 24.5462C598.108 27.095 597.242 30.9739 597.242 34.4907H607.428C607.428 33.4659 607.56 32.8703 607.665 32.5744C607.756 32.319 607.794 32.3694 607.663 32.4752L601.268 24.5462ZM597.242 34.4907V51.3311H607.428V34.4907H597.242ZM602.335 46.238H588.862V56.4241H602.335V46.238ZM593.955 51.3311V12.7702H583.769V51.3311H593.955ZM588.862 17.8632H602.335V7.67717H588.862V17.8632ZM597.242 12.7702V19.575H607.428V12.7702H597.242Z" fill="white" mask="url(#path-1-outside-1_119_1221)"/>
</svg>
